<svg width="30" height="30" viewBox="0 0 30 30" fill="none" xmlns="http://www.w3.org/2000/svg">
<rect width="30" height="29.9875" fill="#F5FAFF"/>
<path d="M10.9602 23.7183C10.6715 24.0067 10.3637 24.1614 10.0369 24.1826C9.70577 24.1996 9.4065 24.0745 9.13907 23.8074L9.3874 23.8264L9.27279 23.9409L9.94137 24.6088L9.3683 25.1812L4.72003 20.5381L5.2931 19.9657L6.3119 20.9833L7.0951 21.7911L7.22245 21.6639L7.24156 21.912C6.97837 21.6491 6.85526 21.3522 6.87224 21.0215C6.89347 20.6865 7.04629 20.377 7.3307 20.0929C7.68304 19.7409 8.08206 19.5756 8.52779 19.5968C8.97351 19.618 9.39801 19.83 9.80129 20.2328L10.8265 21.2568C11.2255 21.6554 11.4356 22.0773 11.4568 22.5226C11.4781 22.9678 11.3125 23.3664 10.9602 23.7183ZM10.2725 23.413C10.5144 23.1713 10.6333 22.9084 10.6291 22.6243C10.6248 22.3402 10.4869 22.0625 10.2152 21.7911L9.26005 20.837C8.98837 20.5657 8.71032 20.4279 8.42591 20.4236C8.14149 20.4194 7.8783 20.5381 7.63634 20.7798C7.40287 21.013 7.29037 21.2738 7.29886 21.5621C7.3116 21.8462 7.44956 22.1197 7.71275 22.3826L8.66787 23.3367C8.93106 23.5996 9.20487 23.7374 9.48928 23.7501C9.77794 23.7586 10.039 23.6462 10.2725 23.413ZM14.5617 20.0954C14.2815 20.3752 13.9865 20.5639 13.6766 20.6614C13.3667 20.759 13.0547 20.7653 12.7406 20.6805C12.4265 20.5872 12.1314 20.4028 11.8555 20.1272L10.9258 19.1985C10.6457 18.9187 10.461 18.624 10.3719 18.3144C10.287 18.0007 10.2933 17.689 10.391 17.3795C10.4886 17.0699 10.6775 16.7752 10.9577 16.4954C11.2379 16.2155 11.5329 16.0268 11.8428 15.9293C12.1526 15.8317 12.4625 15.8275 12.7724 15.9166C13.0865 16.0014 13.3816 16.1816 13.6575 16.4572L14.5935 17.3922C14.8694 17.6678 15.052 17.9646 15.1411 18.2826C15.2303 18.5922 15.226 18.9017 15.1284 19.2113C15.0308 19.5208 14.8419 19.8155 14.5617 20.0954ZM14.0523 19.5865C14.3027 19.3363 14.428 19.0713 14.428 18.7915C14.428 18.5116 14.2921 18.236 14.0204 17.9646L13.0908 17.036C12.8191 16.7646 12.5432 16.6289 12.263 16.6289C11.9828 16.6289 11.7175 16.754 11.4671 17.0042C11.2209 17.2501 11.0956 17.5151 11.0914 17.7992C11.0914 18.0791 11.2272 18.3547 11.4989 18.6261L12.4286 19.5547C12.7003 19.8261 12.9762 19.9618 13.2563 19.9618C13.5408 19.9575 13.8061 19.8325 14.0523 19.5865ZM18.1887 16.4978C17.8406 16.8455 17.4415 17.0109 16.9916 16.994C16.5459 16.9727 16.1235 16.7629 15.7244 16.3643L14.6993 15.3402C14.296 14.9374 14.0838 14.5134 14.0625 14.0682C14.0413 13.6229 14.2069 13.2243 14.5592 12.8724C14.8479 12.5841 15.1577 12.4314 15.4888 12.4144C15.82 12.3975 16.1171 12.5204 16.3803 12.7833L16.132 12.7643L16.2593 12.6371L15.4506 11.8547L14.4318 10.8371L15.0049 10.2646L19.6532 14.9077L19.0801 15.4802L18.4115 14.8123L18.2969 14.9268L18.2778 14.6788C18.5452 14.9459 18.6705 15.2448 18.6535 15.5756C18.6323 15.9021 18.4773 16.2095 18.1887 16.4978ZM17.883 15.8109C18.1207 15.5735 18.2332 15.3127 18.2205 15.0286C18.2078 14.7445 18.0698 14.471 17.8066 14.2081L16.8515 13.254C16.5883 12.9911 16.3145 12.8533 16.0301 12.8406C15.7457 12.8279 15.4846 12.9402 15.2469 13.1777C15.0049 13.4194 14.8861 13.6823 14.8903 13.9664C14.8946 14.2505 15.0325 14.5282 15.3042 14.7996L16.2593 15.7537C16.531 16.025 16.809 16.1629 17.0935 16.1671C17.3779 16.1713 17.6411 16.0526 17.883 15.8109ZM22.5161 14.3378L21.6692 12.4614L17.0846 10.477L17.7214 9.84095L20.7013 11.1894C20.8032 11.2318 20.9178 11.2911 21.0452 11.3675C21.1683 11.4395 21.2723 11.501 21.3572 11.5519C21.3062 11.4671 21.2447 11.3632 21.1725 11.2402C21.0961 11.113 21.0346 11.0007 20.9879 10.9031L19.587 7.97735L20.2047 7.36038L23.1274 13.7272L22.5161 14.3378Z" fill="black" fill-opacity="0.1"/>
</svg>
