<svg
  width="300"
  height="300"
  fill="none"
  xmlns="http://www.w3.org/2000/svg"
>
  <path
    d="M299.874 103.625c0 16.607.33 33.214-.06 49.802-.81 34.355-12.19 64.938-33.87 91.619a147.57 147.57 0 01-45 37.147 144.962 144.962 0 01-55.21 17.007c-40.06 3.872-76.23-6.283-108-31.014-25.86-20.078-43.14-46.09-52.13-77.583a144.223 144.223 0 01-5.51-45.02c1.31-36.266 13.85-68.12 37.91-95.261 20-22.53 44.64-37.576 73.7-45.39a142.942 142.942 0 0137-4.902C182.417.01 216.117 0 249.804 0a50.04 50.04 0 0133.243 12.587 50.082 50.082 0 0116.507 31.492c.238 2.136.352 4.284.34 6.433v53.103l-.02.01z"
    fill="#8DD6F9"
  />
  <ellipse
    cx="150.004"
    cy="150.065"
    rx="111"
    ry="111.048"
    fill="#1D78C1"
  />
  <g
    filter="url(#prefix__filter0_d_732_34)"
    fill="#fff"
  >
    <path
      fill-rule="evenodd"
      clip-rule="evenodd"
      d="M270.384 170.004a16.45 16.45 0 01-5.31 4.462c-3.96 2.281-6.75 5.252-7.43 9.914a15.836 15.836 0 00-.2 1.931c-.03 2.351 1.09 3.641 3.42 3.551 2.206-.085 4.401-.298 6.598-.512.88-.085 1.761-.171 2.642-.248l2-.18c-.434.645-.825 1.252-1.197 1.83-.615.954-1.18 1.831-1.803 2.672-3.493 4.802-7.02 9.584-10.58 14.346a11.437 11.437 0 01-5.71 3.672c-1.198.429-2.408.826-3.618 1.224-2.062.678-4.124 1.355-6.122 2.187a7 7 0 00-4.59 7.063 2.433 2.433 0 001.46 2.541c1.523.584 3.062 1.113 4.606 1.643 1.183.407 2.369.815 3.554 1.249l2.4.79c-.409.495-.861.954-1.35 1.371-2.378 1.632-4.76 3.256-7.141 4.879a1894.344 1894.344 0 00-9.779 6.696c-2.73 1.88-5.63 2.011-8.73 1.51-2.02-.32-4.1-.55-6.1-.7a4.787 4.787 0 00-2.47.4 30.595 30.595 0 00-5 3.222 3.56 3.56 0 000 5.892c1.328 1.061 2.743 2.022 4.158 2.985.694.471 1.388.943 2.072 1.427l1.46 1.061c-.058.071-.103.145-.144.209-.072.114-.126.201-.196.201a155.77 155.77 0 01-23.35 6.423c-1.931.333-3.546-.35-5.183-1.044-.229-.096-.457-.193-.687-.287a94.365 94.365 0 00-8.87-3.502c-3.36-.97-6.07.391-7.94 3.312a2 2 0 00-.09 2.341c1.174 2.052 2.302 4.122 3.432 6.195.352.646.704 1.292 1.058 1.938.184.321.355.652.54 1.011l.27.52a2.174 2.174 0 01-.62.19c-2.119-.078-4.237-.161-6.356-.244-4.661-.183-9.323-.365-13.984-.496-3.26-.09-5.64-1.761-7.8-3.912-1.724-1.717-3.518-3.351-5.316-4.988-.455-.414-.91-.829-1.364-1.245a9.214 9.214 0 00-7.66-2.211 2.84 2.84 0 00-2.133.974 2.835 2.835 0 00-.667 2.248c.226 1.522.56 3.027 1 4.502.142.584.304 1.166.465 1.748.292 1.052.585 2.105.765 3.174.31 1.841-.31 2.331-1.92 1.521-6.5-3.242-13.04-6.513-19.5-9.875-2.21-1.15-3.35-3.121-4.5-5.462-.384-.782-.759-1.567-1.134-2.351-.747-1.564-1.493-3.126-2.306-4.652-1.96-3.692-5.2-4.892-9.2-4.422a2.818 2.818 0 00-2.71 2.391c-.305 1.65-.495 3.347-.68 5.014l-.12 1.059c-.124 1.04-.22 2.095-.33 3.305-.049.546-.101 1.124-.16 1.747-.727-.765-1.388-1.454-2.011-2.105a472.05 472.05 0 01-2.06-2.157 989.375 989.375 0 00-2.099-2.201c-2.199-2.301-4.399-4.603-6.53-6.963a51.568 51.568 0 01-4.45-5.632 7.697 7.697 0 01-1-3.242c-.128-1.045-.195-2.099-.261-3.15-.095-1.495-.19-2.987-.46-4.443-.64-3.432-2.13-6.473-5.38-8.244-1.85-1-2.92-.8-4.44.681-2.41 2.401-3.72 5.482-5 8.583-.17.401-.33.791-.63 1.531-.428-.889-.848-1.722-1.255-2.527-.62-1.225-1.207-2.389-1.744-3.596a1091.051 1091.051 0 01-4.828-10.869l-1.002-2.276c-1.52-3.402-1.26-6.913-.26-10.405.181-.65.383-1.295.585-1.94.41-1.311.82-2.621 1.055-3.962.69-3.962-1.15-7.114-3.87-9.715-1.41-1.35-3.19-.71-4.59.23a50.534 50.534 0 00-4.75 3.722c-.752.648-1.46 1.349-2.257 2.137-.347.344-.711.705-1.103 1.084a16.552 16.552 0 01-.29-1.73c-.227-5.896-.45-11.785-.67-17.668a36.9 36.9 0 01-.08-4.332c.247-3.11 2.09-5.46 3.927-7.8l.073-.093c.41-.564.85-1.105 1.32-1.621 2.86-2.901 2.9-6.473 2.29-10.104a4.144 4.144 0 00-3.75-3.782 4.15 4.15 0 00-1.89.27c-2.015.639-3.976 1.433-5.938 2.227-.862.349-1.725.698-2.592 1.035l-1.58.58c.332-1.053.65-2.075.962-3.076.765-2.46 1.489-4.784 2.278-7.089a296.848 296.848 0 011.981-5.535c.8-2.189 1.6-4.379 2.339-6.59a9.68 9.68 0 014.38-5.462 46.273 46.273 0 005.27-3.432c3.4-2.691 4.17-6.603 4.11-10.604-.03-1.621-1.07-2.351-2.75-2.231-1.862.133-3.72.314-5.578.495-1.074.105-2.148.21-3.222.305-.456.048-.917.077-1.534.116l-.986.064c.432-.719.812-1.403 1.172-2.052.608-1.095 1.163-2.094 1.828-3.01 3.36-4.702 6.82-9.364 10.36-13.946 2-2.591 4.93-3.622 8.07-4.132 3.51-.58 6.92-1.42 9.24-4.422a16.358 16.358 0 002.45-4.372 2.784 2.784 0 00-.66-2.48 14.6 14.6 0 00-4.08-2.412c-1.457-.561-2.97-.982-4.486-1.403-.7-.195-1.4-.39-2.094-.598-.26-.082-.515-.172-.857-.293l-.703-.247c.756-.513 1.482-1.01 2.188-1.495 1.414-.969 2.748-1.883 4.082-2.757a583.686 583.686 0 014.555-2.858c3.012-1.878 6.016-3.75 8.975-5.746a7.997 7.997 0 015.36-1.15c3.026.319 6.067.48 9.11.48 3.96-.13 6.79-2.41 8.79-5.662a2.353 2.353 0 00-.26-2.231c-1.944-1.722-3.966-3.343-5.987-4.964-.692-.555-1.384-1.11-2.073-1.67-.159-.144-.34-.274-.6-.46-.116-.083-.248-.178-.4-.29l2.55-.65c1.732-.44 3.39-.86 5.04-1.3 1.068-.28 2.136-.558 3.204-.835 3.664-.952 7.327-1.904 10.966-2.957a9.787 9.787 0 017.38.76c.706.35 1.403.717 2.101 1.084 1.338.705 2.675 1.409 4.069 1.988 3.83 1.6 7.35.54 10.55-1.761 1.5-1.08 1.21-2.731.82-4.272-.557-2.259-2.011-3.942-3.463-5.623-.374-.434-.748-.867-1.107-1.31-.339-.381-.643-.762-.946-1.141-.205-.258-.41-.515-.624-.77l.16-.38c.75.086 1.5.168 2.25.25 1.25.137 2.5.274 3.75.43 1.943.25 3.885.51 5.826.77 3.645.489 7.29.977 10.944 1.401a9.849 9.849 0 017.44 4.702 12.497 12.497 0 0011.36 6.003c3.09-.03 4.78-1.59 4.46-4.592-.219-2.05-.629-4.102-1.039-6.153-.19-.95-.38-1.9-.551-2.851-.046-.222-.08-.444-.139-.824l-.061-.396c.499.25.969.483 1.421.708.851.423 1.635.814 2.419 1.212 1.573.792 3.134 1.6 4.691 2.406 2.769 1.432 5.524 2.858 8.309 4.177 4.35 2.061 7.02 5.593 9.35 9.594a12.631 12.631 0 011.54 3.722 4.996 4.996 0 003 3.642 27.297 27.297 0 003.69 1.61 4.597 4.597 0 006.11-3.901c.239-1.558.468-3.115.696-4.67.164-1.113.327-2.224.494-3.334.019-.127.054-.246.116-.454.035-.12.079-.269.134-.466 1.27 1.28 2.4 2.42 3.51 3.581 1.33 1.377 2.653 2.76 3.976 4.144 2.406 2.516 4.812 5.032 7.264 7.511a12.336 12.336 0 013.67 8.444c.06 2.731.06 5.472.06 8.213.005.443.115.879.32 1.271.287.583.65 1.124 1.08 1.61 3.71 3.993 7.24 3.973 10.61-.41.918-1.193 1.506-2.64 2.097-4.093.246-.605.492-1.21.763-1.799.214-.587.398-1.185.55-1.79.687.907 1.311 1.86 1.87 2.85l.478 1.049c2.511 5.503 5.024 11.01 7.422 16.57 1.32 3.04.79 6.172-.1 9.243-.36 1.25-.72 2.501-1.15 3.722-1.41 3.992-.07 7.363 2.41 10.424a3.887 3.887 0 005.71.24c1.57-1.53 3.12-3.081 4.63-4.672.573-.601 1.092-1.25 1.612-1.901.224-.281.449-.562.678-.84l.54.35c.07.707.149 1.413.227 2.119.143 1.295.286 2.589.383 3.884.144 2.031.275 4.079.405 6.122.186 2.919.371 5.828.595 8.664.38 4.822-1.45 8.774-4.55 12.276-.182.186-.342.383-.499.576-.163.2-.323.396-.501.574-2.9 2.941-2.77 6.503-2 10.115.63 2.981 3.23 4.221 6.09 3.171 1.99-.733 3.987-1.442 5.98-2.15l1.86-.661.37.44c-.373 1.41-.743 2.821-1.113 4.232-1.057 4.033-2.114 8.065-3.247 12.075-.084.298-.166.6-.249.903-.538 1.975-1.094 4.013-2.221 5.6zM126.004 92.04h-47l-20 16.007v46.02l19 16.007h19v38.016h29V92.04zm9 116.05V92.04h77l29 29.013v87.037h-29v-78.034l-9-9.003v87.037h-29v-87.037h-10v87.037h-29z"
    />
    <path d="M88.004 118.051h9v27.012h-9z" />
  </g>
  <defs>
    <filter
      id="prefix__filter0_d_732_34"
      x="15.714"
      y="24.101"
      width="261.5"
      height="258.736"
      filterUnits="userSpaceOnUse"
      color-interpolation-filters="sRGB"
    >
      <feFlood
        flood-opacity="0"
        result="BackgroundImageFix"
      />
      <feColorMatrix
        in="SourceAlpha"
        values="0 0 0 0 0 0 0 0 0 0 0 0 0 0 0 0 0 0 127 0"
        result="hardAlpha"
      />
      <feOffset
        dx="-4"
        dy="4"
      />
      <feGaussianBlur stdDeviation="1.5" />
      <feComposite
        in2="hardAlpha"
        operator="out"
      />
      <feColorMatrix values="0 0 0 0 0 0 0 0 0 0 0 0 0 0 0 0 0 0 0.25 0" />
      <feBlend
        in2="BackgroundImageFix"
        result="effect1_dropShadow_732_34"
      />
      <feBlend
        in="SourceGraphic"
        in2="effect1_dropShadow_732_34"
        result="shape"
      />
    </filter>
  </defs>
</svg>
